<svg width="315.7200134277344" height="86.31790771484376" xmlns="http://www.w3.org/2000/svg" stroke="null" style="vector-effect: non-scaling-stroke;">

 <g stroke="null">
  <title stroke="null">background</title>
  <rect stroke="null" fill="none" id="canvas_background" height="402" width="582" y="-1" x="-1"/>
 </g>
 <g stroke="null">
  <title stroke="null">Layer 1</title>
  <g stroke="null" fill="#ffffff" id="SvgjsG1160">
   <path stroke="null" id="svg_1" fill=" rgb(255, 255, 255)" d="m128.990009,6.098962l-1.82,0l-13.96,22.56l-4.3,0l0,-22.56l-1.54,0l0,50.15l1.54,0l0,-26.25l4.3,0l15.44,26.25l1.75,0l-15.92,-26.99l14.51,-23.16zm4.63,50.15l1.61,0l3.22,-15.37l16.52,0l3.42,15.37l1.55,0l-10.55,-50.28c-3.42,0 -2.28,0 -5.7,0l-10.07,50.28zm21.01,-16.92l-15.84,0l6.11,-31.82l3.22,0l6.51,31.82zm24.71,-33.3l-12.02,0l0,50.22l1.48,0l0,-20.34l9.53,0l9.4,20.34l1.68,0l-9.6,-20.88l6.11,-6.51l0,-16.25l-6.58,-6.58zm-10.54,28.54l0,-27.13l9.87,0l5.77,5.84l0,14.97l-5.44,5.98l-0.8,0.34l-9.4,0zm23.9,21.68l1.61,0l3.22,-15.37l16.52,0l3.42,15.37l1.54,0l-10.54,-50.28c-3.42,0 -2.28,0 -5.7,0l-10.07,50.28zm21.01,-16.92l-15.84,0l6.11,-31.82l3.22,0l6.51,31.82zm34.24,9.94l0,-36.99l-6.71,-6.72l-8.33,0l-6.71,6.72l0,36.99l6.71,7.18l8.33,0l6.71,-7.18zm-1.48,-0.61l-5.91,6.31l-7.04,0l-5.85,-6.31l0,-35.71l5.85,-5.91l7.11,0l5.84,5.91l0,35.71zm11.15,7.59l1.54,0l0,-48.67l1.21,0l16.38,48.67l2.69,0l0,-50.15l-1.48,0l0.07,49.01l-0.14,0l-16.38,-49.01l-3.89,0l0,50.15zm48.94,-48.74l0,-1.48l-17.52,0l0,50.22l18.19,0l0,-1.54l-16.65,0l0,-22.7l14.5,0l0,-1.41l-14.5,0l0,-23.09l15.98,0z"/>
  </g>
  <g stroke="null" fill="#ffffff" transform="translate(-3.7599968910217285,-6.8385515213012695) scale(0.10000000149011612) " id="SvgjsG1162">
   <g stroke="null" id="svg_3" fill="#ffffff">
    <g stroke="null" id="svg_4" fill="#ffffff">
     <path stroke="null" id="svg_5" fill=" rgb(255, 255, 255)" d="m633.7,181.2c1.2,12.1 -1.4,22.3 -11.4,27.9c-7.4,4.2 -14.7,0.7 -21.5,-4.1c-4.9,-3.4 -9.8,-6.8 -15,-9.8c-47.5,-27.5 -95.2,-57.3 -142.6,-84.8c-22.8,-13.2 -21.4,-12.6 -1.5,-27.7c27.2,-20.8 48.5,-17.2 78.7,-0.3c29.6,16.6 51.7,29.1 78.3,45.1c22.2,11.2 33.8,23.9 35,53.7z"/>
    </g>
    <g stroke="null" id="svg_6" fill="#ffffff">
     <path stroke="null" id="svg_7" fill=" rgb(255, 255, 255)" d="m842.8,457.4c-9.9,7.1 -20.1,9.9 -29.9,4c-7.3,-4.4 -7.9,-12.5 -7.2,-20.7c0.5,-6 1,-11.9 1,-17.9c0.2,-54.9 2.3,-111.1 2.6,-165.8c0.1,-26.3 0.3,-24.8 23.3,-15.1c31.6,13.3 39.1,33.5 39.4,68.1c0.4,33.9 0.6,59.3 -0.2,90.3c1.5,24.9 -3.7,41.2 -29,57.1z"/>
    </g>
    <g stroke="null" id="svg_8" fill="#ffffff">
     <path stroke="null" id="svg_9" fill=" rgb(255, 255, 255)" d="m707.4,776.3c-11,-5.1 -18.5,-12.5 -18.3,-23.9c0.2,-8.5 6.9,-13.1 14.3,-16.5c5.4,-2.5 10.8,-5.1 16,-8c47.7,-27.2 97.5,-53.3 145.1,-80.3c22.9,-13 21.7,-12.1 24.7,12.6c4.2,34 -9.6,50.5 -39.4,68.1c-29.2,17.2 -51.2,30 -78.4,44.8c-20.9,13.6 -37.7,17.2 -64,3.2z"/>
    </g>
    <g stroke="null" id="svg_10" fill="#ffffff">
     <path stroke="null" id="svg_11" fill=" rgb(255, 255, 255)" d="m363.4,817.6c-1.1,-12.1 1.6,-22.3 11.6,-27.8c7.5,-4.1 14.7,-0.6 21.5,4.2c4.9,3.5 9.8,6.8 14.9,9.9c47.3,27.8 94.8,58 141.9,85.9c22.7,13.4 21.3,12.8 1.3,27.7c-27.4,20.6 -48.6,16.9 -78.7,-0.3c-29.5,-16.8 -51.5,-29.4 -77.9,-45.7c-22.1,-11.3 -33.6,-24.1 -34.6,-53.9z"/>
    </g>
    <g stroke="null" id="svg_12" fill="#ffffff">
     <path stroke="null" id="svg_13" fill=" rgb(255, 255, 255)" d="m156.3,539.8c9.9,-7 20.1,-9.7 29.9,-3.8c7.3,4.4 7.8,12.5 7,20.7c-0.6,6 -1.1,11.9 -1.1,17.9c-0.6,54.9 -3.1,111.1 -3.8,165.8c-0.3,26.3 -0.5,24.8 -23.4,15c-31.5,-13.5 -38.8,-33.8 -38.9,-68.4c-0.1,-33.9 -0.1,-59.3 0.8,-90.3c-1.2,-24.8 4.2,-41.2 29.5,-56.9z"/>
    </g>
    <g stroke="null" id="svg_14" fill="#ffffff">
     <path stroke="null" id="svg_15" fill=" rgb(255, 255, 255)" d="m294.2,222c11,5.1 18.4,12.6 18.1,24.1c-0.2,8.5 -7,13 -14.5,16.4c-5.4,2.5 -10.8,5 -16,7.9c-47.9,26.8 -97.9,52.6 -145.7,79.2c-23,12.8 -21.7,11.9 -24.6,-12.8c-3.9,-34 10,-50.5 39.9,-67.8c29.4,-17 51.4,-29.6 78.8,-44.2c20.9,-13.5 37.8,-17 64,-2.8z"/>
    </g>
    <g stroke="null" id="svg_16" fill="#ffffff">
     <path stroke="null" id="svg_17" fill=" rgb(255, 255, 255)" d="m729.8,111.2c-40,0 -72.5,32.5 -72.5,72.5c0,27.2 15.1,51 37.3,63.4c-0.4,64 -0.6,127.9 -0.3,191.9c0.1,17.5 -7.1,25.5 -21.2,36.7c-8.2,6.6 -14.8,12.4 -20,18c-4.7,5 -11.8,7.1 -18.5,5.5l-46.7,-10.8c5.9,20.4 0.8,42.7 -13.3,58.6l60,13.9c2.2,0.5 4.3,0.5 6.4,0.2c2.8,1.1 6.7,-0.4 11.5,-3.1c14.7,-8.5 62.9,-35.4 72.5,-41.3c21.3,-13 30.8,-24.9 30.2,-50.3c-1.5,-71.5 -1.8,-143.2 0.3,-214.7c27.4,-10.4 46.8,-36.9 46.8,-67.8c0.1,-40.2 -32.5,-72.7 -72.5,-72.7zm25.9,112.4c-7.4,4.8 -16.3,7.7 -25.9,7.7c-13.9,0 -26.3,-5.9 -35,-15.4c-7.8,-8.5 -12.5,-19.8 -12.5,-32.1c0,-26.3 21.3,-47.5 47.5,-47.5c26.3,0 47.5,21.3 47.5,47.5c0.1,16.6 -8.5,31.3 -21.6,39.8z"/>
    </g>
    <g stroke="null" id="svg_18" fill="#ffffff">
     <path stroke="null" id="svg_19" fill=" rgb(255, 255, 255)" d="m552.6,528.3l-8.1,8.6l-1.9,2.1l-10.1,10.7c-8.1,8.7 -20.3,12.4 -31.8,9.7l-11.8,-2.7l-2,-0.5l-15.2,-3.5c-11.7,-2.7 -21,-11.5 -24.4,-23l-3.2,-10.8l-0.6,-2.2l-4.5,-15.3c-3.2,-11.3 -0.4,-23.5 7.6,-32.1l8.1,-8.6l1.9,-2l10.2,-10.9c6.3,-6.8 15.2,-10.5 24.3,-10.5c2.5,0 5,0.2 7.4,0.8l11.7,2.7l2.2,0.5l15,3.5c11.7,2.7 21.1,11.5 24.4,23l3.2,11l0.6,2.2l4.5,15.3c3.4,11.2 0.5,23.5 -7.5,32z"/>
    </g>
   </g>
   <path stroke="null" id="svg_20" fill=" rgb(255, 255, 255)" d="m888.8,473.5c-38.9,0 -70.8,30.8 -72.5,69.4c-55.8,31.6 -111.5,63.3 -167,95.5c-15.1,8.8 -25.6,6.5 -42.3,-0.2c-10.5,-4.2 -19.3,-7.1 -27.1,-8.8c-7.1,-1.5 -12.7,-6.7 -14.7,-13.6l-13.2,-44.9c-11.7,11.8 -27.6,18.2 -43.9,18.2c-4.6,0 -9.4,-0.5 -13.9,-1.6l17.4,59.4c1.1,3.7 3.5,6.7 6.5,8.6c1.4,2 4,3.8 7.4,5.8c14.7,8.6 62,36.9 71.9,42.3c21.9,12 36.9,14.3 58.7,1.2c60.4,-36.5 121.6,-71.9 183.8,-105.3c12.9,11.8 30.1,19 48.9,19c40,0 72.5,-32.5 72.5,-72.5s-32.5,-72.5 -72.5,-72.5zm0,120.1c-9.2,0 -17.8,-2.6 -25.1,-7.2c-13.5,-8.4 -22.5,-23.3 -22.5,-40.4c0,-7 1.5,-13.7 4.3,-19.7c7.5,-16.4 24.1,-27.9 43.3,-27.9c26.3,0 47.5,21.3 47.5,47.5c0.1,26.4 -21.2,47.7 -47.5,47.7z"/>
   <path stroke="null" id="svg_21" fill=" rgb(255, 255, 255)" d="m657.7,785c-13.9,0 -26.9,3.9 -38,10.8c-55,-32.6 -110.2,-65 -165.6,-97c-15.1,-8.7 -18.3,-19 -20.9,-36.9c-1.6,-11 -3.5,-20 -5.8,-27.5c-2.1,-6.8 -0.5,-14.2 4.3,-19.4l32.4,-34.5c-20.7,-5.2 -37.4,-20.7 -43.9,-41l-42,44.9c-2.4,2.5 -3.8,5.6 -4,8.8l0,0.1c-1.1,2.2 -1.4,5.4 -1.4,9.3c-0.1,17 -1.2,72.2 -0.9,83.5c0.6,25 6,39.2 28.2,51.5c62.8,35 125.1,71 186.1,109.1c-0.5,3.6 -0.8,7.2 -0.8,10.9c0,40 32.6,72.5 72.5,72.5c40,0 72.5,-32.5 72.5,-72.5s-32.7,-72.6 -72.7,-72.6zm0,120c-25.1,0 -45.7,-19.5 -47.4,-44.2c-0.1,-1.1 -0.1,-2.2 -0.1,-3.3c0,-22.3 15.3,-41 36,-46.1c3.7,-0.9 7.5,-1.4 11.5,-1.4c26.3,0 47.5,21.3 47.5,47.5c0.1,26.3 -21.2,47.5 -47.5,47.5z"/>
   <path stroke="null" id="svg_22" fill=" rgb(255, 255, 255)" d="m424.7,450.5l-60.1,-14c-3.7,-0.8 -7.4,-0.3 -10.5,1.3c-1.9,0.5 -4.2,1.6 -6.7,3c-14.8,8.4 -63.2,34.9 -72.9,40.8c-21.3,12.9 -30.9,24.7 -30.6,50.1c1,73 0.7,146.1 -2.1,219.1c-24.8,11.5 -42,36.7 -42,65.8c0,40 32.5,72.5 72.5,72.5s72.5,-32.5 72.5,-72.5c0,-29.1 -17.3,-54.3 -42.1,-65.8c0.9,-63.8 1.6,-127.6 1.7,-191.4c0.1,-17.5 7.4,-25.4 21.5,-36.5c8.7,-6.8 15.7,-12.9 21,-18.8c4.7,-5 11.8,-7.1 18.5,-5.6l45.5,10.5c-5.5,-20.4 -0.4,-42.7 13.8,-58.5zm-104.7,366c0,26.3 -21.3,47.5 -47.5,47.5c-26.3,0 -47.5,-21.3 -47.5,-47.5c0,-14.8 6.8,-28.1 17.4,-36.8c8.2,-6.7 18.7,-10.8 30.1,-10.8c11.4,0 21.9,4 30.1,10.7c10.6,8.8 17.4,22.1 17.4,36.9z"/>
   <path stroke="null" id="svg_23" fill=" rgb(255, 255, 255)" d="m487.5,350.6c-1.3,-4.5 -4.6,-8 -8.5,-9.8l-0.1,0c-1.1,-0.8 -2.3,-1.6 -3.7,-2.4c-14.6,-8.7 -61.7,-37.4 -71.6,-42.9c-21.9,-12.1 -36.8,-14.6 -58.7,-1.6c-64.1,38 -129.1,74.9 -195.2,109.4c-11.4,-7.5 -25,-11.8 -39.6,-11.8c-40,0 -72.5,32.5 -72.5,72.5s32.5,72.5 72.5,72.5s72.5,-32.5 72.5,-72.5c0,-3 -0.2,-5.9 -0.5,-8.8c56.5,-31.4 112.8,-62.9 169,-94.9c15.2,-8.7 25.7,-6.3 42.3,0.5c10.4,4.2 19.1,7.1 26.8,8.9c6.9,1.6 12.2,6.8 14.2,13.5l12.6,43.3c15.1,-15.1 36.9,-21.4 57.8,-16.7l-17.3,-59.2zm-377.3,161c-26.3,0 -47.5,-21.3 -47.5,-47.5s21.3,-47.5 47.5,-47.5c5.3,0 10.5,0.9 15.3,2.5l0,0c18.8,6.4 32.3,24.1 32.3,45c0,1.7 -0.1,3.3 -0.3,5c-2.5,23.9 -22.8,42.5 -47.3,42.5z"/>
   <path stroke="null" id="svg_24" fill=" rgb(255, 255, 255)" d="m626.4,312.9c-0.7,-25 -6.3,-39.1 -28.6,-51.3c-65.4,-35.7 -130.4,-72.7 -193.8,-111.9c0.1,-1.2 0.1,-2.4 0.1,-3.6c0,-40 -32.6,-72.5 -72.5,-72.5c-40,0 -72.5,32.5 -72.5,72.5s32.5,72.5 72.5,72.5c16.5,0 31.7,-5.5 43.8,-14.8c56,32.6 112.1,65.1 168.5,97.1c15.2,8.6 18.5,18.9 21.3,36.7c1.7,10.8 3.5,19.5 5.8,27c2.1,6.7 0.4,13.9 -4.5,19l-31.3,33.4c20.7,5.2 37.4,20.8 43.8,41.1l42.1,-44.9c2.3,-2.5 3.6,-5.3 4,-8.4l0,-0.1c0.7,-2.2 1,-5 1,-8.3c-0.1,-17 0.6,-72.2 0.3,-83.5zm-275.6,-123.4c-5.9,2.6 -12.4,4.1 -19.3,4.1c-26.3,0 -47.5,-21.3 -47.5,-47.5c0,-26.3 21.3,-47.5 47.5,-47.5c23.1,0 42.4,16.5 46.6,38.3c0.6,3 0.9,6.1 0.9,9.2c0,19.3 -11.6,36 -28.2,43.4z"/>
  </g>
  <text opacity="0.5" font-style="normal" font-weight="normal" stroke="#000" transform="matrix(0.8265187894291085,0,0,0.6805304104436516,118.68881453453905,24.32371711600709) " xml:space="preserve" text-anchor="start" font-family="Helvetica, Arial, sans-serif" font-size="24" id="svg_25" y="78.445076" x="-16.049068" stroke-width="0" fill="#ffffff">OpenCart Optimization</text>
 </g>
</svg>